<svg width="36" height="36" viewBox="0 0 36 36" fill="none" xmlns="http://www.w3.org/2000/svg">
<g id="vuesax/linear/bitcoin-(btc)">
<g id="bitcoin-(btc)">
<path id="Vector" d="M13.5 12.5712H20.5269C22.0846 12.5712 23.3481 13.9731 23.3481 15.3924C23.3481 16.9501 22.0846 18.2135 20.5269 18.2135H13.5V12.5712Z" stroke="white" stroke-width="3" stroke-miterlimit="10" stroke-linecap="round" stroke-linejoin="round"/>
<path id="Vector_2" d="M13.5 18.1962H21.5308C23.3135 18.1962 24.75 19.4596 24.75 21.0173C24.75 22.575 23.3135 23.8385 21.5308 23.8385H13.5V18.1962Z" stroke="white" stroke-width="3" stroke-miterlimit="10" stroke-linecap="round" stroke-linejoin="round"/>
<path id="Vector_3" d="M18.415 23.8212V26.6424" stroke="white" stroke-width="3" stroke-miterlimit="10" stroke-linecap="round" stroke-linejoin="round"/>
<path id="Vector_4" d="M14.9023 23.8212V26.6424" stroke="white" stroke-width="3" stroke-miterlimit="10" stroke-linecap="round" stroke-linejoin="round"/>
<path id="Vector_5" d="M18.415 9.75V12.5712" stroke="white" stroke-width="3" stroke-miterlimit="10" stroke-linecap="round" stroke-linejoin="round"/>
<path id="Vector_6" d="M14.9023 9.75V12.5712" stroke="white" stroke-width="3" stroke-miterlimit="10" stroke-linecap="round" stroke-linejoin="round"/>
<path id="Vector_7" d="M16.1654 12.5712H11.25" stroke="white" stroke-width="3" stroke-miterlimit="10" stroke-linecap="round" stroke-linejoin="round"/>
<path id="Vector_8" d="M16.1654 23.8212H11.25" stroke="white" stroke-width="3" stroke-miterlimit="10" stroke-linecap="round" stroke-linejoin="round"/>
<path id="Vector_9" d="M18 33C26.2843 33 33 26.2843 33 18C33 9.71573 26.2843 3 18 3C9.71573 3 3 9.71573 3 18C3 26.2843 9.71573 33 18 33Z" stroke="white" stroke-width="3" stroke-miterlimit="10"/>
</g>
</g>
</svg>
