<svg width="36" height="36" viewBox="0 0 36 36" fill="none" xmlns="http://www.w3.org/2000/svg">
<g id="vuesax/linear/ethereum-(eth)">
<g id="ethereum-(eth)">
<g id="Group">
<path id="Vector" d="M15.675 4.575L10.065 11.565C8.78997 13.155 9.23997 15.195 11.055 16.095L16.65 18.9C17.385 19.26 18.585 19.26 19.32 18.9L24.915 16.095C26.73 15.18 27.18 13.14 25.905 11.565L20.31 4.575C19.05 2.97 16.95 2.97 15.675 4.575Z" stroke="white" stroke-width="3" stroke-miterlimit="10" stroke-linecap="round" stroke-linejoin="round"/>
<path id="Vector_2" d="M18 3.44998V11.34" stroke="white" stroke-width="3" stroke-miterlimit="10" stroke-linecap="round" stroke-linejoin="round"/>
<path id="Vector_3" d="M11.7002 16.065L18.0002 11.34L24.3002 16.065" stroke="white" stroke-width="3" stroke-miterlimit="10" stroke-linecap="round" stroke-linejoin="round"/>
<path id="Vector_4" d="M13.1552 21.645L15.5702 22.725C17.1152 23.415 18.8852 23.415 20.4452 22.725L22.8602 21.645C25.0202 20.685 27.0152 23.295 25.5152 25.125L20.3252 31.47C19.0502 33.03 16.9652 33.03 15.6752 31.47L10.5002 25.125C8.98517 23.295 10.9802 20.685 13.1552 21.645Z" stroke="white" stroke-width="3" stroke-miterlimit="10" stroke-linecap="round" stroke-linejoin="round"/>
</g>
</g>
</g>
</svg>
