<svg width="25" height="24" viewBox="0 0 25 24" fill="none" xmlns="http://www.w3.org/2000/svg">
<g id="vuesax/linear/menu">
<g id="menu">
<g id="Group">
<path id="Vector" d="M17.8731 8.31001C19.2317 8.31001 20.3331 7.20863 20.3331 5.85001C20.3331 4.49139 19.2317 3.39001 17.8731 3.39001C16.5145 3.39001 15.4131 4.49139 15.4131 5.85001C15.4131 7.20863 16.5145 8.31001 17.8731 8.31001Z" stroke="#0300A2" stroke-width="2" stroke-miterlimit="10" stroke-linecap="round" stroke-linejoin="round"/>
<path id="Vector_2" d="M6.79301 8.31001C8.15164 8.31001 9.25301 7.20863 9.25301 5.85001C9.25301 4.49139 8.15164 3.39001 6.79301 3.39001C5.43439 3.39001 4.33301 4.49139 4.33301 5.85001C4.33301 7.20863 5.43439 8.31001 6.79301 8.31001Z" stroke="#0300A2" stroke-width="2" stroke-miterlimit="10" stroke-linecap="round" stroke-linejoin="round"/>
<path id="Vector_3" d="M17.8731 20.61C19.2317 20.61 20.3331 19.5086 20.3331 18.15C20.3331 16.7914 19.2317 15.69 17.8731 15.69C16.5145 15.69 15.4131 16.7914 15.4131 18.15C15.4131 19.5086 16.5145 20.61 17.8731 20.61Z" stroke="#0300A2" stroke-width="2" stroke-miterlimit="10" stroke-linecap="round" stroke-linejoin="round"/>
<path id="Vector_4" d="M6.79301 20.61C8.15164 20.61 9.25301 19.5086 9.25301 18.15C9.25301 16.7914 8.15164 15.69 6.79301 15.69C5.43439 15.69 4.33301 16.7914 4.33301 18.15C4.33301 19.5086 5.43439 20.61 6.79301 20.61Z" stroke="#0300A2" stroke-width="2" stroke-miterlimit="10" stroke-linecap="round" stroke-linejoin="round"/>
</g>
</g>
</g>
</svg>
